<svg id="Layer_1" data-name="Layer 1" xmlns="http://www.w3.org/2000/svg" xmlns:xlink="http://www.w3.org/1999/xlink" viewBox="0 0 100 21.26"><defs><style>.cls-1{fill:none;}.cls-2{fill:#232956;}.cls-3{clip-path:url(#clip-path);}</style><clipPath id="clip-path" transform="translate(0 -1.97)"><rect class="cls-1" x="4.1" y="5.33" width="20.65" height="13.27" transform="translate(-1.76 21.42) rotate(-70)"/></clipPath></defs><title>Trypdate</title><path class="cls-2" d="M6.09,14.23c-2,0-3.94,0-5.88.15a.22.22,0,0,0,0,.44c1.94.09,3.91.06,5.88.06A.33.33,0,0,0,6.09,14.23Z" transform="translate(0 -1.97)"/><path class="cls-2" d="M6.56,13H4.09c-.41,0-.81,0-1.22,0s-.75,0-1.16,0c-.15,0-.31-.12-.22-.28s.19-.09.32-.09a2.53,2.53,0,0,0,.47,0c1,0,2.06-.07,3.13,0H6.59a.24.24,0,0,1,.19.38A.24.24,0,0,1,6.56,13Z" transform="translate(0 -1.97)"/><path class="cls-2" d="M6.12,11c-.43,0-.9,0-1.34,0s-.56.34-.09.37.81,0,1.22.07a.81.81,0,0,0,.56-.16C6.53,11.13,6.38,11,6.12,11Z" transform="translate(0 -1.97)"/><path class="cls-2" d="M34.36,9.1l-.5,2.73H30.93l-1.4,7.87H26.38l1.4-7.87H24.93l.51-2.73Z" transform="translate(0 -1.97)"/><path class="cls-2" d="M36.64,16.13,36,19.7H32.77L34.66,9.1h5.22c2.51,0,3.54,1.67,3.18,3.68a3.82,3.82,0,0,1-2.79,3.13c-.06,1,.36,1.48,1,1.48A2.59,2.59,0,0,0,42.5,17l.64,2a5.66,5.66,0,0,1-3,.81c-2.79,0-2.85-2.65-2.77-3.74h-.78Zm.4-2.2h1.64a1.24,1.24,0,0,0,1.14-1A.83.83,0,0,0,39,11.83H37.4Z" transform="translate(0 -1.97)"/><path class="cls-2" d="M48.08,12.73,51,9.1h3.54l0,.44-5.24,5.84-.78,4.32H45.23L46,15.43,42.86,9.54l.06-.44h3.54Z" transform="translate(0 -1.97)"/><path class="cls-2" d="M56.61,16.46l-.56,3.24H52.82L54.71,9.1h5.21a2.94,2.94,0,0,1,3.16,3.76,4.33,4.33,0,0,1-4.49,3.6Zm.44-2.53H58.7a1.24,1.24,0,0,0,1.14-1,.83.83,0,0,0-.78-1.06H57.42Z" transform="translate(0 -1.97)"/><path class="cls-2" d="M62.3,19.7,64.2,9.1h5a4.34,4.34,0,0,1,4.51,5.3,6.6,6.6,0,0,1-6.38,5.3Zm4.6-7.87L66,17h1.4a3.07,3.07,0,0,0,3.15-2.57,2,2,0,0,0-2.23-2.57Z" transform="translate(0 -1.97)"/><path class="cls-2" d="M71.73,19.7l6-10.6h2.84L83,19.7H79.56l-.39-1.76H76l-.94,1.76Zm5.21-4.27h2.15l-.5-3Z" transform="translate(0 -1.97)"/><path class="cls-2" d="M91.83,9.1l-.5,2.73H88.4L87,19.7H83.86l1.39-7.87H82.41l.5-2.73Z" transform="translate(0 -1.97)"/><path class="cls-2" d="M90.3,19.7,92.19,9.1H100l-.5,2.73H94.9l-.23,1.37h4l-.45,2.43h-4L94,17h4.6L98.1,19.7Z" transform="translate(0 -1.97)"/><g class="cls-3"><path class="cls-2" d="M12,8l-1.05-.38a1.15,1.15,0,0,0-1.44.77L8.79,10.2a1.15,1.15,0,0,0,.61,1.51l1,.39Z" transform="translate(0 -1.97)"/><path class="cls-2" d="M7.12,16.94a1.68,1.68,0,0,0,1,2.15l4,1.44-3-8.92Z" transform="translate(0 -1.97)"/><path class="cls-2" d="M16.1,9.46,12.14,8a1.56,1.56,0,0,0-2.06.75l-1,2.82,5.55,2,1.5-4.15Z" transform="translate(0 -1.97)"/><path class="cls-2" d="M20.09,10.89l-4-1.44,3,9-5.54-2-1.5,4.11,4,1.45a1.67,1.67,0,0,0,2.15-1l2.89-7.92A1.68,1.68,0,0,0,20.09,10.89Z" transform="translate(0 -1.97)"/><path class="cls-2" d="M8.12,20.66a.75.75,0,0,1-.44-.95l.5-1.38a.75.75,0,0,1,1.4.52l-.5,1.37A.76.76,0,0,1,8.12,20.66Z" transform="translate(0 -1.97)"/><path class="cls-2" d="M15,23.18a.75.75,0,0,1-.44-.95l.5-1.38a.75.75,0,0,1,1.4.51L16,22.74A.75.75,0,0,1,15,23.18Z" transform="translate(0 -1.97)"/><path class="cls-2" d="M13.35,8.44,15.29,3.1a1.47,1.47,0,0,1,1.89-.88l2.77,1a1.46,1.46,0,0,1,.88,1.88l-1.94,5.35-.53-.19,1.95-5.35a.91.91,0,0,0-.55-1.17L17,2.74a.91.91,0,0,0-1.17.55l-2,5.34Z" transform="translate(0 -1.97)"/><path class="cls-2" d="M20,6.74a.49.49,0,0,1-.29-.62l.44-1.2a.9.9,0,0,0-.66-1.07L17.16,3a.9.9,0,0,0-1.2.4l-.44,1.2a.48.48,0,0,1-.91-.33l.44-1.2a1.87,1.87,0,0,1,2.44-1l2.3.84A1.87,1.87,0,0,1,21,5.25l-.44,1.2A.48.48,0,0,1,20,6.74Z" transform="translate(0 -1.97)"/></g></svg>