<?xml version="1.0" encoding="utf-8"?>
<!-- Generator: Adobe Illustrator 22.0.1, SVG Export Plug-In . SVG Version: 6.00 Build 0)  -->
<svg version="1.1" id="Layer_1" xmlns="http://www.w3.org/2000/svg" xmlns:xlink="http://www.w3.org/1999/xlink" x="0px" y="0px"
	 viewBox="0 0 100 100" style="enable-background:new 0 0 100 100;" xml:space="preserve">
<style type="text/css">
	.st0{fill:#7AFFA3;}
	.st1{clip-path:url(#SVGID_2_);}
</style>
<g>
	<path class="st0" d="M26.3,57.4c-8,0.1-16.1,0.1-24,0.6c-1.2,0.1-1.2,1.8,0,1.8c7.9,0.4,15.9,0.3,24,0.3C28,60.1,28,57.4,26.3,57.4
		z"/>
	<path class="st0" d="M28.3,52.6c-0.3,0-0.5,0-0.8,0c-2.8,0-5.6,0-8.4,0c-0.3,0-0.6,0-0.9,0c-1.7,0-3.3-0.1-5-0.1
		c-1.5,0-3.1,0-4.7-0.1c-0.6,0-1.3-0.5-0.9-1.1c0.3-0.4,0.8-0.4,1.3-0.4c0.6,0,1.3,0,1.9-0.1c4.2-0.1,8.4-0.3,12.8-0.1
		c1.7,0,3.2,0,4.8,0c0.8,0,1.2,0.9,0.8,1.5C28.9,52.5,28.6,52.6,28.3,52.6z"/>
	<path class="st0" d="M26.5,44.2C24.7,44,22.8,44,21,44c-2,0-2.3,1.4-0.4,1.5c1.7,0.1,3.3,0.1,5,0.3c1,0,2-0.3,2.3-0.6
		C28.1,44.8,27.5,44.3,26.5,44.2z"/>
	<g>
		<defs>
			
				<rect id="SVGID_1_" x="16.9" y="22.9" transform="matrix(0.342 -0.9397 0.9397 0.342 -8.1236 88.388)" width="84.3" height="54.2"/>
		</defs>
		<clipPath id="SVGID_2_">
			<use xlink:href="#SVGID_1_"  style="overflow:visible;"/>
		</clipPath>
		<g class="st1">
			<path class="st0" d="M49,33.6L44.7,32c-2.3-0.8-4.9,0.6-5.9,3.2l-2.8,7.6c-0.9,2.6,0.2,5.3,2.5,6.2l4.3,1.6L49,33.6z"/>
			<path class="st0" d="M29.2,70.3c-1.3,3.6,0.5,7.5,4.1,8.8L49.5,85L37.2,48.5L29.2,70.3z"/>
			<path class="st0" d="M65.9,39.7l-16.2-5.9c-3.6-1.3-7.3,0.1-8.4,3.1l-4.2,11.5l22.6,8.2L65.9,39.7L65.9,39.7z"/>
			<path class="st0" d="M82.2,45.6L66,39.7l12.2,36.7l-22.6-8.2L49.5,85l16.2,5.9c3.6,1.3,7.5-0.5,8.8-4.1l11.8-32.4
				C87.6,50.8,85.8,46.9,82.2,45.6z"/>
			<path class="st0" d="M33.3,85.5c-1.6-0.6-2.4-2.3-1.8-3.9l2-5.6c0.6-1.6,2.3-2.4,3.9-1.8c1.6,0.6,2.4,2.3,1.8,3.9l-2,5.6
				C36.6,85.3,34.9,86.1,33.3,85.5z"/>
			<path class="st0" d="M61.6,95.8c-1.6-0.6-2.4-2.3-1.8-3.9l2-5.6c0.6-1.6,2.3-2.4,3.9-1.8c1.6,0.6,2.4,2.3,1.8,3.9l-2,5.6
				C64.9,95.5,63.2,96.4,61.6,95.8z"/>
			<path class="st0" d="M54.7,35.6l7.9-21.8c1.1-3.1,4.6-4.7,7.7-3.6l11.3,4.1c3.1,1.1,4.7,4.6,3.6,7.7l-7.9,21.8L75.2,43l7.9-21.8
				c0.7-1.9-0.3-4.1-2.2-4.8l-11.3-4.1c-1.9-0.7-4.1,0.3-4.8,2.2l-7.9,21.8L54.7,35.6z"/>
			<path class="st0" d="M81.7,28.6c-1-0.4-1.5-1.5-1.2-2.5l1.8-4.9c0.6-1.7-0.6-3.6-2.7-4.4l-9.4-3.4c-2.1-0.8-4.3,0-4.9,1.6
				l-1.8,4.9c-0.4,1-1.5,1.5-2.5,1.2c-1-0.4-1.5-1.5-1.2-2.5l1.8-4.9c1.3-3.7,5.8-5.5,9.9-4l9.4,3.4c4.1,1.5,6.4,5.7,5.1,9.4
				l-1.8,4.9C83.9,28.5,82.8,29,81.7,28.6z"/>
		</g>
	</g>
</g>
</svg>
